<svg preserveAspectRatio="none" width="100%" height="100%" overflow="visible" style="display: block;" viewBox="0 0 20 20" fill="none" xmlns="http://www.w3.org/2000/svg">
<g id="Icon">
<path id="Vector" d="M17.5 5.83333V14.1667C17.5 14.648 17.3015 15.1089 16.9553 15.4551C16.6091 15.8013 16.1482 16 15.6667 16H4.33333C3.85185 16 3.39092 15.8013 3.04472 15.4551C2.69852 15.1089 2.5 14.648 2.5 14.1667V5.83333C2.5 5.35185 2.69852 4.89092 3.04472 4.54472C3.39092 4.19852 3.85185 4 4.33333 4H15.6667C16.1482 4 16.6091 4.19852 16.9553 4.54472C17.3015 4.89092 17.5 5.35185 17.5 5.83333Z" stroke="var(--stroke-0, #009966)" stroke-width="1.66667" stroke-linecap="round" stroke-linejoin="round"/>
<path id="Vector_2" d="M2.5 6.66667L8.425 10.8333C8.93074 11.2033 9.53131 11.402 10.15 11.402C10.7687 11.402 11.3693 11.2033 11.875 10.8333L17.5 6.66667" stroke="var(--stroke-0, #009966)" stroke-width="1.66667" stroke-linecap="round" stroke-linejoin="round"/>
</g>
</svg>